<svg xmlns="http://www.w3.org/2000/svg" version="1.1" xmlns:xlink="http://www.w3.org/1999/xlink" xmlns:svgjs="http://svgjs.dev/svgjs" width="1500" height="579" viewBox="0 0 1500 579"><g transform="matrix(1,0,0,1,-0.9090909090909918,0.21169095414848016)"><svg viewBox="0 0 396 153" data-background-color="#293040" preserveAspectRatio="xMidYMid meet" height="579" width="1500" xmlns="http://www.w3.org/2000/svg" xmlns:xlink="http://www.w3.org/1999/xlink"><g id="tight-bounds" transform="matrix(1,0,0,1,0.2400000000000091,-0.05593906042265928)"><svg viewBox="0 0 395.52 153.11187812084532" height="153.11187812084532" width="395.52"><g><svg viewBox="0 0 663.4176555029152 256.8191828797009" height="153.11187812084532" width="395.52"><g transform="matrix(1,0,0,1,265.92005550291526,65.07355549889445)"><svg viewBox="0 0 397.4975999999999 126.672071881912" height="126.672071881912" width="397.4975999999999"><g id="textblocktransform"><svg viewBox="0 0 397.4975999999999 126.672071881912" height="126.672071881912" width="397.4975999999999" id="textblock"><g><rect width="397.4975999999999" height="7.741817784513655" x="0" y="94.96746060077507" fill="#d5b263" opacity="1" stroke-width="0" stroke="transparent" fill-opacity="1" class="rect-qz-0" data-fill-palette-color="primary" rx="1%" id="qz-0" data-palette-color="#d5b263"></rect></g><g transform="matrix(1,0,0,1,0.9887999999999693,0)"><svg viewBox="0 0 395.52 85.84751818446317" height="85.84751818446317" width="395.52"><g transform="matrix(1,0,0,1,0,0)"><svg width="395.52" viewBox="1.85 -36.25 171.84 37.3" height="85.84751818446317" data-palette-color="#d5b263"><path d="M13.4-35.85Q18.15-35.85 21.23-33.98 24.3-32.1 26-30.4L26-30.4Q26.2-30.2 26.2-29.95L26.2-29.95Q26.2-29.8 26.08-29.58 25.95-29.35 25.9-29.25L25.9-29.25Q25.65-28.9 25.08-28.03 24.5-27.15 24.15-26.75L24.15-26.75Q24-26.55 23.83-26.33 23.65-26.1 23.53-26 23.4-25.9 23.15-25.9L23.15-25.9Q23.05-25.9 22.68-26.23 22.3-26.55 21.95-26.8L21.95-26.8Q19.95-28.55 18.05-29.8 16.15-31.05 14.4-31.05L14.4-31.05Q13-31.05 12.1-30.43 11.2-29.8 11.2-27.6L11.2-27.6Q11.2-25.45 12.8-24.25 14.4-23.05 17.05-21.95L17.05-21.95Q17.3-21.85 19.98-20.7 22.65-19.55 24.73-16.3 26.8-13.05 26.8-8.55L26.8-8.55Q26.8-3.75 23.2-1.35 19.6 1.05 13.25 1.05L13.25 1.05Q6.05 1.05 4.1-1.73 2.15-4.5 2.05-4.6L2.05-4.6Q1.85-4.85 1.85-5.1L1.85-5.1Q1.85-5.25 2.25-5.75L2.25-5.75Q2.9-6.65 4.15-7.9L4.15-7.9Q4.35-8.1 4.55-8.1L4.55-8.1Q4.8-8.1 5.1-7.73 5.4-7.35 5.6-7.15L5.6-7.15Q8.55-4.2 12.3-4.2L12.3-4.2Q14.2-4.2 15.6-4.93 17-5.65 17-7.65L17-7.65Q17-11.1 11.55-15L11.55-15Q10.65-15.6 9.85-16L9.85-16Q7.75-17.15 6.25-18.25 4.75-19.35 3.6-21.15 2.45-22.95 2.45-25.35L2.45-25.35Q2.45-28.35 4.33-30.75 6.2-33.15 8.83-34.5 11.45-35.85 13.4-35.85L13.4-35.85ZM34.6-33.4Q34.45-32.3 34.35-27.75L34.35-27.75Q34.35-26.35 34.15-20.65L34.15-20.65Q33.95-15.15 33.95-13.95L33.95-13.95Q33.95-11.05 34.05-6.63 34.15-2.2 34.25-1.35L34.25-1.35Q34.3-1.05 34.3-0.65L34.3-0.65Q34.3-0.3 34.17-0.15 34.05 0 33.8 0.15L33.8 0.15Q33.5 0.35 32.25 0.35L32.25 0.35Q32.05 0.35 31.62 0.35 31.2 0.35 31.1 0.25 31 0.15 31-0.15L31-0.15 31.05-1.75 31.15-8.3 31.25-18.8Q31.25-20.3 31.45-25.6L31.45-25.6Q31.5-26.85 31.6-29.68 31.7-32.5 31.6-33L31.6-33 31.55-34.05Q31.55-35.35 32.35-35.35L32.35-35.35 34.2-35.3Q34.7-35.3 34.7-34.6L34.7-34.6Q34.7-34.35 34.65-34.02 34.6-33.7 34.6-33.4L34.6-33.4ZM54.2-35.05Q57.65-34.85 59.92-32.25 62.2-29.65 62.2-24.45L62.2-24.45Q62.2-21.05 60.75-19.05 59.3-17.05 57.4-16.28 55.5-15.5 54.05-15.5L54.05-15.5Q52.7-15.5 49.5-15.2L49.5-15.2Q47.65-15 46.5-14.95L46.5-14.95Q46.4-10.35 46.4-8.7L46.4-8.7Q46.4-2.2 46.55-1.65L46.55-1.65Q46.65-1.15 46.37-0.78 46.09-0.4 45.67-0.28 45.25-0.15 44.9-0.3L44.9-0.3Q44.75-0.35 44.05-0.35L44.05-0.35Q42.55-0.35 40.84-0.15L40.84-0.15Q40.05-0.05 39.8-0.48 39.55-0.9 39.55-1.8L39.55-1.8Q39.55-2.9 39.59-3.8L39.59-3.8 39.65-8 39.74-13.9Q40.05-24.5 40.05-30.45L40.05-30.45Q40.05-32.25 39.99-32.6L39.99-32.6Q39.9-33.7 39.9-33.9L39.9-33.9Q39.9-35.2 40.45-35.2L40.45-35.2Q40.7-35.2 41.47-35.15 42.25-35.1 43.65-35.1L43.65-35.1Q44.05-35.1 45.7-35.15 47.34-35.2 49.15-35.2L49.15-35.2Q51.8-35.2 54.2-35.05L54.2-35.05ZM52.64-19.1Q54.5-19.1 56.09-20.2 57.7-21.3 57.7-24.15L57.7-24.15Q57.7-27.2 56.45-28.78 55.2-30.35 52.8-30.8L52.8-30.8Q49.05-31.55 46.9-31.4L46.9-31.4Q46.9-30 46.84-29.3L46.84-29.3Q46.75-26.5 46.59-25.3L46.59-25.3Q46.4-23.55 46.5-21.35L46.5-21.35 46.59-19.4 48.95-19.25Q50.3-19.1 52.64-19.1L52.64-19.1ZM85.74-29.85Q85.74-28.85 85.59-28L85.59-28Q85.54-27.25 84.89-27.25L84.89-27.25Q84.69-27.25 84.34-27.35 83.99-27.45 83.79-27.5L83.79-27.5Q83.04-27.65 79.44-27.65L79.44-27.65 77.54-27.7Q76.89-27.75 75.64-27.75L75.64-27.75Q74.74-27.75 74.29-27.7L74.29-27.7Q72.79-27.6 71.64-27.6L71.64-27.6 68.99-27.65Q68.59-27.65 68.54-27.48 68.49-27.3 68.49-26.65L68.49-26.65Q68.49-25.75 68.44-25.1L68.44-25.1Q68.34-23.1 68.34-21.85L68.34-21.85 68.34-18.9Q68.34-17.85 68.39-17.3L68.39-17.3Q68.79-17.25 69.74-17.25L69.74-17.25Q70.59-17.2 73.24-17.2L73.24-17.2Q74.34-17.2 76.44-17.3L76.44-17.3Q78.04-17.4 78.54-17.4L78.54-17.4Q79.24-17.4 79.94-17.32 80.64-17.25 80.99-17.25L80.99-17.25Q81.64-17.25 81.64-16.65L81.64-16.65Q81.64-16.45 81.59-16.07 81.54-15.7 81.54-15.1L81.54-15.1 81.59-12.45Q81.59-12 81.49-11.83 81.39-11.65 81.14-11.65L81.14-11.65Q80.99-11.65 80.72-11.73 80.44-11.8 80.24-11.8L80.24-11.8Q79.79-11.8 78.57-11.85 77.34-11.9 75.24-11.9L75.24-11.9Q72.99-11.9 71.34-11.7 69.69-11.5 69.34-11.5L69.34-11.5Q68.79-11.5 68.69-11.55L68.69-11.55Q68.44-11.55 68.39-11.6L68.39-11.6 68.39-6.6Q68.74-6.6 68.94-6.65L68.94-6.65 70.34-6.7 76.24-6.75Q78.04-6.75 79.09-6.7L79.09-6.7 82.54-6.65 84.64-6.7Q85.24-6.7 85.44-6.43 85.64-6.15 85.64-5.65L85.64-5.65 85.59-4.65 85.54-1.15Q85.54-0.35 85.19-0.18 84.84 0 84.19-0.03 83.54-0.05 83.14-0.05L83.14-0.05Q80.99-0.05 79.44-0.1L79.44-0.1 74.34-0.15Q73.74-0.15 68.34 0L68.34 0 66.44 0.05 66.14 0.1Q65.84 0.1 65.79-0.08 65.74-0.25 65.74-0.75L65.74-0.75Q65.69-1.3 65.69-2.6L65.69-2.6Q65.69-3 65.64-3.48 65.59-3.95 65.59-4.75L65.59-4.75 65.59-11.6Q65.59-12.6 65.67-13.55 65.74-14.5 65.74-14.95L65.74-14.95Q65.94-17.25 65.94-19.35L65.94-19.35Q65.94-21.95 65.79-23.45L65.79-23.45Q65.69-25.15 65.69-26.55L65.69-26.55Q65.69-29.7 65.84-33.9L65.84-33.9Q65.84-34.55 66.09-34.77 66.34-35 66.79-35L66.79-35 67.54-34.95Q67.99-34.95 68.99-34.88 69.99-34.8 71.44-34.8L71.44-34.8Q73.09-34.8 75.34-35.05L75.34-35.05Q78.04-35.25 78.94-35.25L78.94-35.25Q80.99-35.25 82.69-35.1L82.69-35.1 84.49-35.05Q85.14-35.05 85.34-34.75 85.54-34.45 85.54-33.65L85.54-33.65Q85.54-33.2 85.64-32.1L85.64-32.1Q85.74-30.8 85.74-29.85L85.74-29.85ZM95.74-36.15L99.99-36.2Q101.09-36.2 101.61-35.98 102.14-35.75 102.44-35.2L102.44-35.2Q102.94-34.15 103.69-32.5L103.69-32.5 105.54-28.5 107.89-23.35Q108.54-21.95 109.59-19.65 110.64-17.35 111.09-16.45L111.09-16.45Q111.94-14.7 112.19-14.3L112.19-14.3 113.59-11.55 115.14-8.5 115.04-11.4 114.84-16.3 114.84-17.8Q114.84-20.55 114.94-23.35L114.94-23.35Q114.94-25.45 114.89-26.75L114.89-26.75 114.84-30.55 115.04-35.35Q115.04-36.1 115.79-36.1L115.79-36.1Q116.04-36.1 116.79-35.95L116.79-35.95Q117.24-35.85 117.74-35.85 118.24-35.85 118.54-35.85L118.54-35.85Q118.94-35.85 119.06-35.75 119.19-35.65 119.19-35.4L119.19-35.4Q119.19-35.2 119.14-34.95 119.09-34.7 119.09-34.4L119.09-34.4 119.04-30.1 118.94-20 118.89-18.55Q118.89-16.85 118.94-15.45 118.99-14.05 119.04-13.15L119.04-13.15Q119.19-11 119.19-9.55L119.19-9.55Q119.19-9.75 119.34-3.6L119.34-3.6 119.44-0.8 119.44-0.7Q119.44 0.3 118.49 0.2L118.49 0.2Q118.34 0.15 117.89 0.15L117.89 0.15 116.44 0.2 116.14 0.2Q115.79 0.2 115.61 0.05 115.44-0.1 115.04-0.8L115.04-0.8Q114.89-1.15 114.64-1.8 114.39-2.45 114.04-3.25L114.04-3.25Q111.89-8.65 110.94-10.6L110.94-10.6Q109.84-12.7 105.39-22.65L105.39-22.65Q104.39-24.7 103.14-27L103.14-27 101.69-29.6 101.84-24.85 101.89-21.9Q101.99-18.6 101.99-17.55L101.99-17.55Q101.99-13.45 102.14-9.3L102.14-9.3 102.19-5.4Q102.19-4.35 102.29-2.35L102.29-2.35 102.39-0.6 102.39-0.5Q102.39 0 102.14 0.15 101.89 0.3 101.44 0.3L101.44 0.3 100.34 0.35Q99.29 0.5 98.09 0.5L98.09 0.5Q96.69 0.5 95.79 0.55L95.79 0.55 93.24 0.6Q92.49 0.6 92.24 0.33 91.99 0.05 91.94-0.3 91.89-0.65 91.84-0.8L91.84-0.8Q91.64-1.7 91.64-3L91.64-3Q91.64-4.2 91.69-5.05L91.69-5.05Q91.69-7.65 91.79-11.13 91.89-14.6 92.04-16.1L92.04-16.1 92.29-19.65Q92.89-27.95 92.89-29L92.89-29Q92.89-32.95 93.04-34.9L93.04-34.9Q93.14-36.25 94.44-36.25L94.44-36.25Q94.84-36.25 95.19-36.2 95.54-36.15 95.74-36.15L95.74-36.15ZM136.24-27.2Q134.99-27.2 133.76-26.15 132.54-25.1 131.69-22.68 130.84-20.25 130.84-16.45L130.84-16.45Q130.84-12.75 131.91-10.58 132.99-8.4 134.36-7.55 135.74-6.7 136.74-6.7L136.74-6.7Q137.64-6.7 138.59-7.33 139.54-7.95 140.24-8.65L140.24-8.65Q140.34-8.75 140.56-9 140.79-9.25 140.99-9.25L140.99-9.25Q141.24-9.25 141.59-9.05L141.59-9.05 145.84-6.7Q146.04-6.6 146.46-6.43 146.89-6.25 147.06-6.1 147.24-5.95 147.24-5.7L147.24-5.7Q147.24-5.45 147.09-5.15L147.09-5.15Q145.99-3.3 143.64-1.35 141.29 0.6 137.14 0.6L137.14 0.6Q133.89 0.6 130.91-1.83 127.94-4.25 126.14-8.45 124.34-12.65 124.34-17.7L124.34-17.7Q124.34-22.7 126.06-26.7 127.79-30.7 130.49-32.95 133.19-35.2 136.04-35.2L136.04-35.2Q139.59-35.2 141.76-33.73 143.94-32.25 144.89-30.9L144.89-30.9Q145.09-30.6 145.26-30.35 145.44-30.1 145.44-29.85L145.44-29.85Q145.44-29.55 144.89-29.05L144.89-29.05Q142.59-27.25 141.59-25.9L141.59-25.9Q141.09-25.25 140.74-24.93 140.39-24.6 140.04-24.6L140.04-24.6Q139.69-24.6 139.24-25.1L139.24-25.1Q138.19-26.25 137.61-26.73 137.04-27.2 136.24-27.2L136.24-27.2ZM173.54-0.7Q173.69-0.35 173.69-0.2L173.69-0.2Q173.69 0 173.14 0L173.14 0 170.34 0Q170.14 0 170.01-0.08 169.89-0.15 169.79-0.45L169.79-0.45Q169.59-1 169.24-2.25L169.24-2.25Q168.79-3.5 168.64-4.5L168.64-4.5Q168.49-5.25 168.16-6.3 167.84-7.35 167.59-7.9L167.59-7.9Q167.14-8.85 166.79-10.05L166.79-10.05 166.34-11.5Q166.09-12.05 165.96-12.18 165.84-12.3 165.54-12.3L165.54-12.3Q164.49-12.3 163.99-12.25L163.99-12.25 161.84-12.15Q161.44-12.1 158.14-12.1L158.14-12.1 155.09-12.1 154.99-12.1Q154.69-12.1 154.54-11.55L154.54-11.55 154.44-11.05 154.24-10.1Q154.14-9.85 153.59-7.2L153.59-7.2Q153.44-6.35 153.09-5L153.09-5Q152.99-4 152.64-3.35L152.64-3.35Q152.54-3.2 152.39-2.65 152.24-2.1 152.14-1.75L152.14-1.75Q151.99-1.35 151.79-0.45L151.79-0.45Q151.74-0.4 151.69-0.23 151.64-0.05 151.54-0.03 151.44 0 151.24 0L151.24 0 150.24 0Q149.79 0 149.99-0.65L149.99-0.65Q149.99-0.8 150.04-0.9L150.04-0.9Q150.04-1 150.09-1.15 150.14-1.3 150.24-1.6L150.24-1.6 150.69-3.45Q150.79-3.75 151.04-4.5 151.29-5.25 151.39-5.9L151.39-5.9Q151.64-7.1 152.34-9.55L152.34-9.55 152.74-10.95Q153.69-14.05 153.94-15.3L153.94-15.3 154.64-17.95Q155.14-19.6 155.24-20.05L155.24-20.05Q155.59-21.55 156.24-23.8L156.24-23.8 156.59-25.2 156.89-26.25Q157.39-27.95 157.74-28.7L157.74-28.7Q157.84-29 158.46-30.78 159.09-32.55 159.29-33.6L159.29-33.6Q159.64-34.8 160.01-35.4 160.39-36 161.04-36L161.04-36Q161.29-36 161.54-35.55 161.79-35.1 162.04-34.45 162.29-33.8 162.39-33.5L162.39-33.5Q162.79-32.55 163.79-28.75L163.79-28.75 164.19-27.35Q164.24-26.95 165.84-22.45L165.84-22.45 166.79-19.7 167.69-17.35Q169.09-13.4 169.49-12.55L169.49-12.55Q171.24-7.25 171.54-6.15L171.54-6.15Q171.89-4.85 172.66-2.9 173.44-0.95 173.54-0.7L173.54-0.7ZM164.19-15.55Q164.84-15.55 164.84-15.9L164.84-15.9Q164.84-16.15 164.49-17L164.49-17Q164.19-17.75 163.59-19.8L163.59-19.8Q163.14-21.45 162.69-22.65L162.69-22.65Q162.19-24.15 161.61-26.2 161.04-28.25 160.94-28.85L160.94-28.85Q160.19-31.5 159.94-31.5L159.94-31.5Q159.79-31.5 159.44-30.15L159.44-30.15 159.14-29.05Q158.79-27.7 158.24-25.68 157.69-23.65 157.24-22.25L157.24-22.25Q156.94-20.95 156.41-18.98 155.89-17 155.59-16.25L155.59-16.25Q155.49-15.95 155.49-15.9L155.49-15.9Q155.49-15.55 155.81-15.45 156.14-15.35 156.46-15.38 156.79-15.4 156.89-15.4L156.89-15.4 159.79-15.5Q160.39-15.6 161.49-15.6L161.49-15.6 164.19-15.55Z" opacity="1" transform="matrix(1,0,0,1,0,0)" fill="#d5b263" class="wordmark-text-0" data-fill-palette-color="primary" id="text-0"></path></svg></g></svg></g><g transform="matrix(1,0,0,1,0,111.82922080160063)"><svg viewBox="0 0 232.209792 14.842851080311373" height="14.842851080311373" width="232.209792"><g transform="matrix(1,0,0,1,0,0)"><svg width="232.209792" viewBox="0.35 -39.65 789.9499999999999 50.5" height="14.842851080311373" data-palette-color="#d5b263"><path d="M11.75-35.25Q14.75-35.25 17.05-34.2 19.35-33.15 21.3-31.05L21.3-31.05 18.35-27.65Q16.8-29.05 15.33-29.75 13.85-30.45 12.2-30.45L12.2-30.45Q10.3-30.45 9.2-29.28 8.1-28.1 8.1-26.2L8.1-26.2Q8.1-24.3 9.25-23.1 10.4-21.9 13.75-20.6L13.75-20.6Q18.05-18.85 20.08-16.5 22.1-14.15 22.1-9.85L22.1-9.85Q22.1-6.9 20.75-4.48 19.4-2.05 16.88-0.65 14.35 0.75 11 0.75L11 0.75Q7.55 0.75 5-0.48 2.45-1.7 0.35-3.95L0.35-3.95 3.55-7.45Q5.35-5.85 7-5 8.65-4.15 10.6-4.15L10.6-4.15Q12.9-4.15 14.18-5.58 15.45-7 15.45-9.45L15.45-9.45Q15.45-11.6 14.33-12.98 13.2-14.35 10.15-15.5L10.15-15.5Q5.55-17.35 3.53-19.75 1.5-22.15 1.5-25.75L1.5-25.75Q1.5-28.5 2.83-30.65 4.15-32.8 6.5-34.02 8.85-35.25 11.75-35.25L11.75-35.25ZM26.1-26.45L32.25-26.45 32.25 0 26.1 0 26.1-26.45ZM29.15-39.65Q30.8-39.65 31.82-38.6 32.85-37.55 32.85-35.9L32.85-35.9Q32.85-34.3 31.82-33.25 30.8-32.2 29.15-32.2L29.15-32.2Q27.5-32.2 26.47-33.25 25.45-34.3 25.45-35.9L25.45-35.9Q25.45-37.55 26.47-38.6 27.5-39.65 29.15-39.65L29.15-39.65ZM45.3-27.15Q49.99-27.15 53.25-24.05L53.25-24.05 50.89-20.7Q49.49-21.7 48.24-22.2 46.99-22.7 45.7-22.7L45.7-22.7Q44.24-22.7 43.42-21.93 42.59-21.15 42.59-19.8L42.59-19.8Q42.59-18.45 43.52-17.63 44.45-16.8 47.24-15.7L47.24-15.7Q50.7-14.35 52.34-12.5 54-10.65 54-7.55L54-7.55Q54-3.7 51.3-1.48 48.59 0.75 44.45 0.75L44.45 0.75Q41.74 0.75 39.47-0.23 37.2-1.2 35.49-2.95L35.49-2.95 38.49-6.25Q41.3-3.8 44.2-3.8L44.2-3.8Q45.84-3.8 46.8-4.67 47.74-5.55 47.74-7.1L47.74-7.1Q47.74-8.25 47.34-8.97 46.95-9.7 45.95-10.33 44.95-10.95 42.95-11.7L42.95-11.7Q39.49-13.05 38.02-14.85 36.55-16.65 36.55-19.45L36.55-19.45Q36.55-22.8 38.92-24.98 41.3-27.15 45.3-27.15L45.3-27.15ZM68.99-5L71.14-1.2Q68.69 0.75 65.39 0.75L65.39 0.75Q61.94 0.75 60.14-1.23 58.34-3.2 58.34-6.6L58.34-6.6 58.34-22 55.24-22 55.24-26.45 58.34-26.45 58.34-32.3 64.49-33.05 64.49-26.45 69.49-26.45 68.89-22 64.49-22 64.49-6.6Q64.49-4.2 66.54-4.2L66.54-4.2Q67.19-4.2 67.69-4.38 68.19-4.55 68.99-5L68.99-5ZM92.54-13.85Q92.54-13.4 92.39-11.3L92.39-11.3 78.74-11.3Q78.94-7.2 80.17-5.58 81.39-3.95 83.64-3.95L83.64-3.95Q85.19-3.95 86.44-4.48 87.69-5 89.14-6.15L89.14-6.15 91.69-2.65Q88.19 0.75 83.29 0.75L83.29 0.75Q78.09 0.75 75.31-2.85 72.54-6.45 72.54-13L72.54-13Q72.54-19.55 75.19-23.35 77.84-27.15 82.69-27.15L82.69-27.15Q87.34-27.15 89.94-23.78 92.54-20.4 92.54-13.85L92.54-13.85ZM86.54-15.3L86.54-15.65Q86.54-19.4 85.64-21.13 84.74-22.85 82.74-22.85L82.74-22.85Q80.89-22.85 79.92-21.18 78.94-19.5 78.74-15.3L78.74-15.3 86.54-15.3ZM120.49-27.15Q123.14-27.15 124.74-25.1 126.34-23.05 126.34-19.6L126.34-19.6 126.34 0 120.29 0 120.29-18.95Q120.29-20.85 119.79-21.68 119.29-22.5 118.34-22.5L118.34-22.5Q116.39-22.5 114.59-18.8L114.59-18.8 114.59 0 108.59 0 108.59-18.95Q108.59-22.5 106.69-22.5L106.69-22.5Q104.64-22.5 102.89-18.8L102.89-18.8 102.89 0 96.84 0 96.84-26.45 102.19-26.45 102.59-23.05Q105.19-27.15 108.84-27.15L108.84-27.15Q110.69-27.15 112.04-26 113.39-24.85 114.09-22.75L114.09-22.75Q116.74-27.15 120.49-27.15L120.49-27.15ZM141.83-34.55L148.18-34.55 148.18 0 141.83 0 141.83-34.55ZM166.38-27.15Q169.23-27.15 170.88-25.1 172.53-23.05 172.53-19.6L172.53-19.6 172.53 0 166.38 0 166.38-18.9Q166.38-20.8 165.86-21.63 165.33-22.45 164.33-22.45L164.33-22.45Q162.23-22.45 160.18-18.5L160.18-18.5 160.18 0 154.03 0 154.03-26.45 159.38-26.45 159.83-23Q161.18-25.1 162.71-26.13 164.23-27.15 166.38-27.15L166.38-27.15ZM187.78-33.05Q186.38-33.05 185.7-32.3 185.03-31.55 185.03-30L185.03-30 185.03-26.45 190.08-26.45 189.38-22 185.03-22 185.03 0 178.88 0 178.88-22 175.58-22 175.58-26.45 178.88-26.45 178.88-29.8Q178.88-33.4 180.98-35.55 183.08-37.7 186.98-37.7L186.98-37.7Q190.03-37.7 192.88-36.2L192.88-36.2 191.18-32.2Q189.43-33.05 187.78-33.05L187.78-33.05ZM202.28-27.15Q207.28-27.15 210.05-23.65 212.83-20.15 212.83-13.25L212.83-13.25Q212.83-6.65 210.03-2.95 207.23 0.75 202.28 0.75L202.28 0.75Q197.33 0.75 194.53-2.88 191.73-6.5 191.73-13.25L191.73-13.25Q191.73-19.95 194.53-23.55 197.33-27.15 202.28-27.15L202.28-27.15ZM202.28-22.5Q200.13-22.5 199.13-20.38 198.13-18.25 198.13-13.25L198.13-13.25Q198.13-8.2 199.13-6.08 200.13-3.95 202.28-3.95L202.28-3.95Q204.43-3.95 205.43-6.08 206.43-8.2 206.43-13.25L206.43-13.25Q206.43-18.3 205.43-20.4 204.43-22.5 202.28-22.5L202.28-22.5ZM229.02-27.1Q230.17-27.1 231.07-26.75L231.07-26.75 230.07-20.85Q229.07-21.1 228.22-21.1L228.22-21.1Q226.32-21.1 225.22-19.45 224.12-17.8 223.52-14.55L223.52-14.55 223.52 0 217.37 0 217.37-26.45 222.72-26.45 223.17-21.85Q225.02-27.1 229.02-27.1L229.02-27.1ZM257.57-27.15Q260.22-27.15 261.82-25.1 263.42-23.05 263.42-19.6L263.42-19.6 263.42 0 257.37 0 257.37-18.95Q257.37-20.85 256.87-21.68 256.37-22.5 255.42-22.5L255.42-22.5Q253.47-22.5 251.67-18.8L251.67-18.8 251.67 0 245.67 0 245.67-18.95Q245.67-22.5 243.77-22.5L243.77-22.5Q241.72-22.5 239.97-18.8L239.97-18.8 239.97 0 233.92 0 233.92-26.45 239.27-26.45 239.67-23.05Q242.27-27.15 245.92-27.15L245.92-27.15Q247.77-27.15 249.12-26 250.47-24.85 251.17-22.75L251.17-22.75Q253.82-27.15 257.57-27.15L257.57-27.15ZM285.82-6.4Q285.82-5.1 286.17-4.48 286.52-3.85 287.32-3.45L287.32-3.45 286.07 0.65Q284.02 0.4 282.79-0.45 281.57-1.3 280.97-3.05L280.97-3.05Q278.67 0.75 274.52 0.75L274.52 0.75Q271.22 0.75 269.27-1.48 267.32-3.7 267.32-7.4L267.32-7.4Q267.32-11.7 269.99-13.95 272.67-16.2 277.77-16.2L277.77-16.2 279.82-16.2 279.82-18.05Q279.82-20.55 278.94-21.58 278.07-22.6 276.12-22.6L276.12-22.6Q273.77-22.6 270.27-21.3L270.27-21.3 268.87-25.3Q270.87-26.2 273.02-26.68 275.17-27.15 277.12-27.15L277.12-27.15Q285.82-27.15 285.82-18.35L285.82-18.35 285.82-6.4ZM276.17-3.7Q278.57-3.7 279.82-7L279.82-7 279.82-12.55 278.37-12.55Q275.82-12.55 274.64-11.4 273.47-10.25 273.47-7.85L273.47-7.85Q273.47-5.8 274.17-4.75 274.87-3.7 276.17-3.7L276.17-3.7ZM298.97-27.15Q303.67-27.15 306.92-24.05L306.92-24.05 304.57-20.7Q303.17-21.7 301.92-22.2 300.67-22.7 299.37-22.7L299.37-22.7Q297.92-22.7 297.09-21.93 296.27-21.15 296.27-19.8L296.27-19.8Q296.27-18.45 297.19-17.63 298.12-16.8 300.92-15.7L300.92-15.7Q304.37-14.35 306.02-12.5 307.67-10.65 307.67-7.55L307.67-7.55Q307.67-3.7 304.97-1.48 302.27 0.75 298.12 0.75L298.12 0.75Q295.42 0.75 293.14-0.23 290.87-1.2 289.17-2.95L289.17-2.95 292.17-6.25Q294.97-3.8 297.87-3.8L297.87-3.8Q299.52-3.8 300.47-4.67 301.42-5.55 301.42-7.1L301.42-7.1Q301.42-8.25 301.02-8.97 300.62-9.7 299.62-10.33 298.62-10.95 296.62-11.7L296.62-11.7Q293.17-13.05 291.69-14.85 290.22-16.65 290.22-19.45L290.22-19.45Q290.22-22.8 292.59-24.98 294.97-27.15 298.97-27.15L298.97-27.15ZM311.51-26.45L317.66-26.45 317.66 0 311.51 0 311.51-26.45ZM314.56-39.65Q316.21-39.65 317.24-38.6 318.26-37.55 318.26-35.9L318.26-35.9Q318.26-34.3 317.24-33.25 316.21-32.2 314.56-32.2L314.56-32.2Q312.91-32.2 311.89-33.25 310.86-34.3 310.86-35.9L310.86-35.9Q310.86-37.55 311.89-38.6 312.91-39.65 314.56-39.65L314.56-39.65ZM341.26-34.55Q347.51-34.55 350.78-31.78 354.06-29 354.06-23.6L354.06-23.6Q354.06-17.85 350.83-15 347.61-12.15 341.71-12.15L341.71-12.15 339.71-12.15 339.71 0 333.36 0 333.36-34.55 341.26-34.55ZM341.36-16.9Q344.61-16.9 346.06-18.4 347.51-19.9 347.51-23.55L347.51-23.55Q347.51-26.85 346.06-28.35 344.61-29.85 341.41-29.85L341.41-29.85 339.71-29.85 339.71-16.9 341.36-16.9ZM376.51-13.85Q376.51-13.4 376.36-11.3L376.36-11.3 362.71-11.3Q362.91-7.2 364.13-5.58 365.36-3.95 367.61-3.95L367.61-3.95Q369.16-3.95 370.41-4.48 371.66-5 373.11-6.15L373.11-6.15 375.66-2.65Q372.16 0.75 367.26 0.75L367.26 0.75Q362.06 0.75 359.28-2.85 356.51-6.45 356.51-13L356.51-13Q356.51-19.55 359.16-23.35 361.81-27.15 366.66-27.15L366.66-27.15Q371.31-27.15 373.91-23.78 376.51-20.4 376.51-13.85L376.51-13.85ZM370.51-15.3L370.51-15.65Q370.51-19.4 369.61-21.13 368.71-22.85 366.71-22.85L366.71-22.85Q364.86-22.85 363.88-21.18 362.91-19.5 362.71-15.3L362.71-15.3 370.51-15.3ZM386.4 0.75Q383.7 0.75 382.13-0.93 380.55-2.6 380.55-5.4L380.55-5.4 380.55-37.05 386.7-37.7 386.7-5.65Q386.7-5 387-4.6 387.3-4.2 387.9-4.2L387.9-4.2Q388.25-4.2 388.58-4.3 388.9-4.4 389-4.4L389-4.4 390.2-0.2Q388.5 0.75 386.4 0.75L386.4 0.75ZM412.1-13.85Q412.1-13.4 411.95-11.3L411.95-11.3 398.3-11.3Q398.5-7.2 399.73-5.58 400.95-3.95 403.2-3.95L403.2-3.95Q404.75-3.95 406-4.48 407.25-5 408.7-6.15L408.7-6.15 411.25-2.65Q407.75 0.75 402.85 0.75L402.85 0.75Q397.65 0.75 394.88-2.85 392.1-6.45 392.1-13L392.1-13Q392.1-19.55 394.75-23.35 397.4-27.15 402.25-27.15L402.25-27.15Q406.9-27.15 409.5-23.78 412.1-20.4 412.1-13.85L412.1-13.85ZM406.1-15.3L406.1-15.65Q406.1-19.4 405.2-21.13 404.3-22.85 402.3-22.85L402.3-22.85Q400.45-22.85 399.48-21.18 398.5-19.5 398.3-15.3L398.3-15.3 406.1-15.3ZM423.75-27.15Q428.45-27.15 431.7-24.05L431.7-24.05 429.35-20.7Q427.95-21.7 426.7-22.2 425.45-22.7 424.15-22.7L424.15-22.7Q422.7-22.7 421.87-21.93 421.05-21.15 421.05-19.8L421.05-19.8Q421.05-18.45 421.97-17.63 422.9-16.8 425.7-15.7L425.7-15.7Q429.15-14.35 430.8-12.5 432.45-10.65 432.45-7.55L432.45-7.55Q432.45-3.7 429.75-1.48 427.05 0.75 422.9 0.75L422.9 0.75Q420.2 0.75 417.92-0.23 415.65-1.2 413.95-2.95L413.95-2.95 416.95-6.25Q419.75-3.8 422.65-3.8L422.65-3.8Q424.3-3.8 425.25-4.67 426.2-5.55 426.2-7.1L426.2-7.1Q426.2-8.25 425.8-8.97 425.4-9.7 424.4-10.33 423.4-10.95 421.4-11.7L421.4-11.7Q417.95-13.05 416.47-14.85 415-16.65 415-19.45L415-19.45Q415-22.8 417.37-24.98 419.75-27.15 423.75-27.15L423.75-27.15ZM447.44-5L449.59-1.2Q447.14 0.75 443.84 0.75L443.84 0.75Q440.39 0.75 438.59-1.23 436.8-3.2 436.8-6.6L436.8-6.6 436.8-22 433.69-22 433.69-26.45 436.8-26.45 436.8-32.3 442.94-33.05 442.94-26.45 447.94-26.45 447.34-22 442.94-22 442.94-6.6Q442.94-4.2 445-4.2L445-4.2Q445.64-4.2 446.14-4.38 446.64-4.55 447.44-5L447.44-5ZM469.04-6.4Q469.04-5.1 469.39-4.48 469.74-3.85 470.54-3.45L470.54-3.45 469.29 0.65Q467.24 0.4 466.02-0.45 464.79-1.3 464.19-3.05L464.19-3.05Q461.89 0.75 457.74 0.75L457.74 0.75Q454.44 0.75 452.49-1.48 450.54-3.7 450.54-7.4L450.54-7.4Q450.54-11.7 453.22-13.95 455.89-16.2 460.99-16.2L460.99-16.2 463.04-16.2 463.04-18.05Q463.04-20.55 462.17-21.58 461.29-22.6 459.34-22.6L459.34-22.6Q456.99-22.6 453.49-21.3L453.49-21.3 452.09-25.3Q454.09-26.2 456.24-26.68 458.39-27.15 460.34-27.15L460.34-27.15Q469.04-27.15 469.04-18.35L469.04-18.35 469.04-6.4ZM459.39-3.7Q461.79-3.7 463.04-7L463.04-7 463.04-12.55 461.59-12.55Q459.04-12.55 457.87-11.4 456.69-10.25 456.69-7.85L456.69-7.85Q456.69-5.8 457.39-4.75 458.09-3.7 459.39-3.7L459.39-3.7ZM486.49-27.1Q487.64-27.1 488.54-26.75L488.54-26.75 487.54-20.85Q486.54-21.1 485.69-21.1L485.69-21.1Q483.79-21.1 482.69-19.45 481.59-17.8 480.99-14.55L480.99-14.55 480.99 0 474.84 0 474.84-26.45 480.19-26.45 480.64-21.85Q482.49-27.1 486.49-27.1L486.49-27.1ZM491.39-26.45L497.54-26.45 497.54 0 491.39 0 491.39-26.45ZM494.44-39.65Q496.09-39.65 497.11-38.6 498.14-37.55 498.14-35.9L498.14-35.9Q498.14-34.3 497.11-33.25 496.09-32.2 494.44-32.2L494.44-32.2Q492.79-32.2 491.76-33.25 490.74-34.3 490.74-35.9L490.74-35.9Q490.74-37.55 491.76-38.6 492.79-39.65 494.44-39.65L494.44-39.65ZM520.13-6.4Q520.13-5.1 520.49-4.48 520.84-3.85 521.63-3.45L521.63-3.45 520.38 0.65Q518.34 0.4 517.11-0.45 515.88-1.3 515.29-3.05L515.29-3.05Q512.99 0.75 508.84 0.75L508.84 0.75Q505.54 0.75 503.59-1.48 501.64-3.7 501.64-7.4L501.64-7.4Q501.64-11.7 504.31-13.95 506.99-16.2 512.09-16.2L512.09-16.2 514.13-16.2 514.13-18.05Q514.13-20.55 513.26-21.58 512.38-22.6 510.44-22.6L510.44-22.6Q508.09-22.6 504.59-21.3L504.59-21.3 503.19-25.3Q505.19-26.2 507.34-26.68 509.49-27.15 511.44-27.15L511.44-27.15Q520.13-27.15 520.13-18.35L520.13-18.35 520.13-6.4ZM510.49-3.7Q512.88-3.7 514.13-7L514.13-7 514.13-12.55 512.69-12.55Q510.14-12.55 508.96-11.4 507.79-10.25 507.79-7.85L507.79-7.85Q507.79-5.8 508.49-4.75 509.19-3.7 510.49-3.7L510.49-3.7ZM547.43-35.25Q550.08-35.25 552.1-34.38 554.13-33.5 556.03-31.7L556.03-31.7 552.98-28.05Q551.68-29.25 550.45-29.83 549.23-30.4 547.78-30.4L547.78-30.4Q544.78-30.4 543.08-27.4 541.38-24.4 541.38-17.35L541.38-17.35Q541.38-10.4 543.08-7.38 544.78-4.35 547.88-4.35L547.88-4.35Q549.43-4.35 550.58-4.98 551.73-5.6 553.28-6.9L553.28-6.9 556.33-3.4Q554.73-1.6 552.48-0.43 550.23 0.75 547.43 0.75L547.43 0.75Q541.58 0.75 538.13-3.8 534.68-8.35 534.68-17.35L534.68-17.35Q534.68-23.3 536.33-27.3 537.98-31.3 540.85-33.27 543.73-35.25 547.43-35.25L547.43-35.25ZM576.48-6.4Q576.48-5.1 576.83-4.48 577.18-3.85 577.98-3.45L577.98-3.45 576.73 0.65Q574.68 0.4 573.45-0.45 572.23-1.3 571.63-3.05L571.63-3.05Q569.33 0.75 565.18 0.75L565.18 0.75Q561.88 0.75 559.93-1.48 557.98-3.7 557.98-7.4L557.98-7.4Q557.98-11.7 560.65-13.95 563.33-16.2 568.43-16.2L568.43-16.2 570.48-16.2 570.48-18.05Q570.48-20.55 569.6-21.58 568.73-22.6 566.78-22.6L566.78-22.6Q564.43-22.6 560.93-21.3L560.93-21.3 559.53-25.3Q561.53-26.2 563.68-26.68 565.83-27.15 567.78-27.15L567.78-27.15Q576.48-27.15 576.48-18.35L576.48-18.35 576.48-6.4ZM566.83-3.7Q569.23-3.7 570.48-7L570.48-7 570.48-12.55 569.03-12.55Q566.48-12.55 565.3-11.4 564.13-10.25 564.13-7.85L564.13-7.85Q564.13-5.8 564.83-4.75 565.53-3.7 566.83-3.7L566.83-3.7ZM600.22-29.85L601.77-25.1Q600.72-24.6 599.25-24.4 597.77-24.2 595.57-24.2L595.57-24.2Q597.67-23.2 598.7-21.53 599.72-19.85 599.72-17.4L599.72-17.4Q599.72-13.4 597.27-10.95 594.82-8.5 590.62-8.5L590.62-8.5Q589.37-8.5 588.07-8.9L588.07-8.9Q587.17-8.15 587.17-6.85L587.17-6.85Q587.17-5.85 587.72-5.35 588.27-4.85 589.77-4.85L589.77-4.85 592.57-4.85Q596.57-4.85 598.92-2.78 601.27-0.7 601.27 2.5L601.27 2.5Q601.27 6.3 598.35 8.58 595.42 10.85 590.02 10.85L590.02 10.85Q584.32 10.85 582.05 8.75 579.77 6.65 579.77 2.6L579.77 2.6 585.22 2.6Q585.22 4.75 586.22 5.65 587.22 6.55 590.07 6.55L590.07 6.55Q592.82 6.55 593.97 5.6 595.12 4.65 595.12 2.9L595.12 2.9Q595.12 1.2 594.17 0.4 593.22-0.4 591.22-0.4L591.22-0.4 589.32-0.4Q585.52-0.4 583.77-1.75 582.02-3.1 582.02-5.45L582.02-5.45Q582.02-6.8 582.75-8.03 583.47-9.25 584.72-10.2L584.72-10.2Q582.67-11.5 581.72-13.3 580.77-15.1 580.77-17.7L580.77-17.7Q580.77-22.05 583.37-24.58 585.97-27.1 590.37-27.1L590.37-27.1Q593.62-27.1 595.75-27.8 597.87-28.5 600.22-29.85L600.22-29.85ZM590.37-23Q588.62-23 587.72-21.75 586.82-20.5 586.82-17.8L586.82-17.8Q586.82-15.25 587.72-13.88 588.62-12.5 590.32-12.5L590.32-12.5Q592.07-12.5 592.92-13.73 593.77-14.95 593.77-17.85L593.77-17.85Q593.77-20.55 592.95-21.78 592.12-23 590.37-23L590.37-23ZM621.42-6.4Q621.42-5.1 621.77-4.48 622.12-3.85 622.92-3.45L622.92-3.45 621.67 0.65Q619.62 0.4 618.4-0.45 617.17-1.3 616.57-3.05L616.57-3.05Q614.27 0.75 610.12 0.75L610.12 0.75Q606.82 0.75 604.87-1.48 602.92-3.7 602.92-7.4L602.92-7.4Q602.92-11.7 605.6-13.95 608.27-16.2 613.37-16.2L613.37-16.2 615.42-16.2 615.42-18.05Q615.42-20.55 614.55-21.58 613.67-22.6 611.72-22.6L611.72-22.6Q609.37-22.6 605.87-21.3L605.87-21.3 604.47-25.3Q606.47-26.2 608.62-26.68 610.77-27.15 612.72-27.15L612.72-27.15Q621.42-27.15 621.42-18.35L621.42-18.35 621.42-6.4ZM611.77-3.7Q614.17-3.7 615.42-7L615.42-7 615.42-12.55 613.97-12.55Q611.42-12.55 610.25-11.4 609.07-10.25 609.07-7.85L609.07-7.85Q609.07-5.8 609.77-4.75 610.47-3.7 611.77-3.7L611.77-3.7ZM638.87-27.1Q640.02-27.1 640.92-26.75L640.92-26.75 639.92-20.85Q638.92-21.1 638.07-21.1L638.07-21.1Q636.17-21.1 635.07-19.45 633.97-17.8 633.37-14.55L633.37-14.55 633.37 0 627.22 0 627.22-26.45 632.57-26.45 633.02-21.85Q634.87-27.1 638.87-27.1L638.87-27.1ZM667.81-18.3Q671.16-17.55 673.09-15.63 675.01-13.7 675.01-9.9L675.01-9.9Q675.01-4.9 671.64-2.45 668.26 0 662.46 0L662.46 0 653.76 0 653.76-34.55 661.31-34.55Q667.26-34.55 670.51-32.3 673.76-30.05 673.76-25.75L673.76-25.75Q673.76-22.85 672.14-20.95 670.51-19.05 667.81-18.3L667.81-18.3ZM661.96-29.85L660.11-29.85 660.11-20.3 662.26-20.3Q667.31-20.3 667.31-25.2L667.31-25.2Q667.31-27.65 666.04-28.75 664.76-29.85 661.96-29.85L661.96-29.85ZM662.51-4.8Q665.41-4.8 666.91-6.03 668.41-7.25 668.41-10.15L668.41-10.15Q668.41-13.05 667.01-14.43 665.61-15.8 662.66-15.8L662.66-15.8 660.11-15.8 660.11-4.8 662.51-4.8ZM697.16-26.45L697.16 0 691.81 0 691.51-3.35Q690.26-1.3 688.71-0.28 687.16 0.75 685.11 0.75L685.11 0.75Q682.21 0.75 680.54-1.3 678.86-3.35 678.86-6.65L678.86-6.65 678.86-26.45 685.01-26.45 685.01-7Q685.01-3.9 687.11-3.9L687.11-3.9Q688.31-3.9 689.26-4.83 690.21-5.75 691.01-7.45L691.01-7.45 691.01-26.45 697.16-26.45ZM715.81-37.7L721.96-37.05 721.96 0 716.51 0 716.21-3.05Q713.86 0.75 710.16 0.75L710.16 0.75Q706.06 0.75 703.88-2.93 701.71-6.6 701.71-13.2L701.71-13.2Q701.71-17.4 702.83-20.58 703.96-23.75 705.96-25.45 707.96-27.15 710.56-27.15L710.56-27.15Q713.76-27.15 715.81-24.5L715.81-24.5 715.81-37.7ZM711.91-3.9Q713.06-3.9 713.98-4.7 714.91-5.5 715.81-7L715.81-7 715.81-19.85Q714.21-22.55 712.16-22.55L712.16-22.55Q708.11-22.55 708.11-13.25L708.11-13.25Q708.11-8.2 709.11-6.05 710.11-3.9 711.91-3.9L711.91-3.9ZM744.56-6.4Q744.56-5.1 744.91-4.48 745.26-3.85 746.06-3.45L746.06-3.45 744.81 0.65Q742.76 0.4 741.53-0.45 740.31-1.3 739.71-3.05L739.71-3.05Q737.41 0.75 733.26 0.75L733.26 0.75Q729.96 0.75 728.01-1.48 726.06-3.7 726.06-7.4L726.06-7.4Q726.06-11.7 728.73-13.95 731.41-16.2 736.51-16.2L736.51-16.2 738.56-16.2 738.56-18.05Q738.56-20.55 737.68-21.58 736.81-22.6 734.86-22.6L734.86-22.6Q732.51-22.6 729.01-21.3L729.01-21.3 727.61-25.3Q729.61-26.2 731.76-26.68 733.91-27.15 735.86-27.15L735.86-27.15Q744.56-27.15 744.56-18.35L744.56-18.35 744.56-6.4ZM734.91-3.7Q737.31-3.7 738.56-7L738.56-7 738.56-12.55 737.11-12.55Q734.56-12.55 733.38-11.4 732.21-10.25 732.21-7.85L732.21-7.85Q732.21-5.8 732.91-4.75 733.61-3.7 734.91-3.7L734.91-3.7ZM769-26.45L762 0.1Q760.7 4.9 757.8 7.65 754.9 10.4 750.05 10.85L750.05 10.85 749.35 6.5Q752.5 5.85 754.08 4.42 755.65 3 756.55 0L756.55 0 754.25 0 747.55-26.45 753.8-26.45 758.2-4.1 762.9-26.45 769-26.45ZM788.8-6.4Q788.8-5.1 789.15-4.48 789.5-3.85 790.3-3.45L790.3-3.45 789.05 0.65Q787 0.4 785.78-0.45 784.55-1.3 783.95-3.05L783.95-3.05Q781.65 0.75 777.5 0.75L777.5 0.75Q774.2 0.75 772.25-1.48 770.3-3.7 770.3-7.4L770.3-7.4Q770.3-11.7 772.98-13.95 775.65-16.2 780.75-16.2L780.75-16.2 782.8-16.2 782.8-18.05Q782.8-20.55 781.93-21.58 781.05-22.6 779.1-22.6L779.1-22.6Q776.75-22.6 773.25-21.3L773.25-21.3 771.85-25.3Q773.85-26.2 776-26.68 778.15-27.15 780.1-27.15L780.1-27.15Q788.8-27.15 788.8-18.35L788.8-18.35 788.8-6.4ZM779.15-3.7Q781.55-3.7 782.8-7L782.8-7 782.8-12.55 781.35-12.55Q778.8-12.55 777.63-11.4 776.45-10.25 776.45-7.85L776.45-7.85Q776.45-5.8 777.15-4.75 777.85-3.7 779.15-3.7L779.15-3.7Z" opacity="1" transform="matrix(1,0,0,1,0,0)" fill="#d5b263" class="slogan-text-1" data-fill-palette-color="secondary" id="text-1"></path></svg></g></svg></g></svg></g></svg></g><g><svg viewBox="0 0 245.65351679999995 256.8191828797009" height="256.8191828797009" width="245.65351679999995"><g><svg xmlns="http://www.w3.org/2000/svg" xmlns:xlink="http://www.w3.org/1999/xlink" version="1.1" x="0" y="0" viewBox="48.126 38.677 415.749 434.6460000000001" style="enable-background:new 0 0 512 512;" xml:space="preserve" height="256.8191828797009" width="245.65351679999995" class="icon-icon-0" data-fill-palette-color="accent" id="icon-0"><g fill="#c9ad8b" data-fill-palette-color="accent"><g fill="#c9ad8b" data-fill-palette-color="accent"><g fill="#c9ad8b" data-fill-palette-color="accent"><path d="M421.354 473.323H317.417c-2.609 0-4.724-2.115-4.724-4.725V303.244c0-31.261-25.433-56.693-56.693-56.693-31.26 0-56.693 25.432-56.693 56.693v165.354c0 2.609-2.115 4.725-4.725 4.725H90.646c-2.609 0-4.724-2.115-4.724-4.725V156.788c0-2.609 2.115-4.725 4.724-4.725h330.709c2.609 0 4.725 2.115 4.725 4.725v311.811C426.079 471.208 423.964 473.323 421.354 473.323zM322.142 463.874h94.488V161.512H95.37v302.362h94.488v-160.63c0-36.471 29.671-66.142 66.142-66.142s66.142 29.671 66.142 66.142V463.874z" fill="#c9ad8b" data-fill-palette-color="accent"></path></g><g fill="#c9ad8b" data-fill-palette-color="accent"><path d="M459.149 161.512H52.851c-2.609 0-4.725-2.115-4.725-4.724v-37.795c0-2.609 2.115-4.725 4.725-4.725h406.299c2.609 0 4.725 2.116 4.725 4.725v37.795C463.874 159.396 461.759 161.512 459.149 161.512zM57.575 152.063h396.85v-28.347H57.575V152.063z" fill="#c9ad8b" data-fill-palette-color="accent"></path></g><g fill="#c9ad8b" data-fill-palette-color="accent"><path d="M421.354 123.716H90.646c-2.609 0-4.724-2.115-4.724-4.724V81.197c0-2.609 2.115-4.724 4.724-4.724h330.709c2.609 0 4.725 2.115 4.725 4.724v37.795C426.079 121.601 423.964 123.716 421.354 123.716zM95.37 114.268h321.26V85.921H95.37V114.268z" fill="#c9ad8b" data-fill-palette-color="accent"></path></g><g fill="#c9ad8b" data-fill-palette-color="accent"><path d="M374.129 85.921c-0.005 0-0.012 0.001-0.019 0H137.89c-1.77 0-3.391-0.989-4.201-2.563-0.81-1.574-0.672-3.468 0.356-4.908l26.996-37.795c0.887-1.241 2.319-1.978 3.845-1.978h182.227c1.526 0 2.958 0.737 3.845 1.978l26.781 37.494c0.695 0.823 1.114 1.886 1.114 3.048C378.854 83.806 376.738 85.921 374.129 85.921zM147.07 76.473h217.86l-20.247-28.347H167.318L147.07 76.473z" fill="#c9ad8b" data-fill-palette-color="accent"></path></g><g fill="#c9ad8b" data-fill-palette-color="accent"><path d="M421.354 199.307H137.89c-2.609 0-4.724-2.115-4.724-4.725 0-2.609 2.115-4.724 4.724-4.724h283.465c2.609 0 4.725 2.115 4.725 4.724C426.079 197.192 423.964 199.307 421.354 199.307z" fill="#c9ad8b" data-fill-palette-color="accent"></path></g><g fill="#c9ad8b" data-fill-palette-color="accent"><path d="M440.252 341.039H298.52c-2.609 0-4.725-2.114-4.725-4.724 0-2.61 2.115-4.725 4.725-4.725h141.732c2.609 0 4.725 2.114 4.725 4.725C444.977 338.925 442.861 341.039 440.252 341.039z" fill="#c9ad8b" data-fill-palette-color="accent"></path></g><g fill="#c9ad8b" data-fill-palette-color="accent"><path d="M440.252 369.386H298.52c-2.609 0-4.725-2.115-4.725-4.725s2.115-4.724 4.725-4.724h141.732c2.609 0 4.725 2.114 4.725 4.724S442.861 369.386 440.252 369.386z" fill="#c9ad8b" data-fill-palette-color="accent"></path></g><g fill="#c9ad8b" data-fill-palette-color="accent"><path d="M213.48 341.039H71.748c-2.609 0-4.725-2.114-4.725-4.724 0-2.61 2.116-4.725 4.725-4.725H213.48c2.609 0 4.724 2.114 4.724 4.725C218.205 338.925 216.089 341.039 213.48 341.039z" fill="#c9ad8b" data-fill-palette-color="accent"></path></g><g fill="#c9ad8b" data-fill-palette-color="accent"><path d="M213.48 369.386H71.748c-2.609 0-4.725-2.115-4.725-4.725s2.116-4.724 4.725-4.724H213.48c2.609 0 4.724 2.114 4.724 4.724S216.089 369.386 213.48 369.386z" fill="#c9ad8b" data-fill-palette-color="accent"></path></g><g fill="#c9ad8b" data-fill-palette-color="accent"><path d="M364.661 303.244c-13.025 0-23.622-10.597-23.622-23.622S351.636 256 364.661 256s23.622 10.597 23.622 23.622S377.687 303.244 364.661 303.244zM364.661 265.449c-7.815 0-14.173 6.357-14.173 14.173s6.357 14.173 14.173 14.173 14.174-6.357 14.174-14.173S372.477 265.449 364.661 265.449z" fill="#c9ad8b" data-fill-palette-color="accent"></path></g><g fill="#c9ad8b" data-fill-palette-color="accent"><path d="M147.338 303.244c-13.025 0-23.622-10.597-23.622-23.622S134.313 256 147.338 256c13.025 0 23.622 10.597 23.622 23.622S160.364 303.244 147.338 303.244zM147.338 265.449c-7.815 0-14.173 6.357-14.173 14.173s6.358 14.173 14.173 14.173c7.815 0 14.173-6.357 14.173-14.173S155.154 265.449 147.338 265.449z" fill="#c9ad8b" data-fill-palette-color="accent"></path></g></g></g></svg></g></svg></g></svg></g><defs></defs></svg><rect width="395.52" height="153.11187812084532" fill="none" stroke="none" visibility="hidden"></rect></g></svg></g></svg>